<?xml version="1.0" encoding="UTF-8"?>
<!DOCTYPE svg PUBLIC "-//W3C//DTD SVG 1.1//EN" "http://www.w3.org/Graphics/SVG/1.1/DTD/svg11.dtd">
<!-- Creator: CorelDRAW X6 -->
<svg xmlns="http://www.w3.org/2000/svg" xml:space="preserve" width="0.333331in" height="0.333331in" version="1.1" style="shape-rendering:geometricPrecision; text-rendering:geometricPrecision; image-rendering:optimizeQuality; fill-rule:evenodd; clip-rule:evenodd"
viewBox="0 0 333 333"
 xmlns:xlink="http://www.w3.org/1999/xlink">
 <defs>
  <style type="text/css">
   <![CDATA[
    .fil0 {fill:#4F2D67;fill-rule:nonzero}
   ]]>
  </style>
 </defs>
 <g id="Layer_x0020_1">
  <metadata id="CorelCorpID_0Corel-Layer"/>
  <path class="fil0" d="M134 90l-97 153 28 0 23 -36 52 0 0 36 23 0 0 -153 -29 0zm5 35l0 59 -37 0 37 -59z"/>
  <path id="1" class="fil0" d="M211 155l0 -42 33 0c6,0 11,2 15,6 4,4 6,9 6,15 0,6 -2,11 -6,15 -4,4 -9,6 -15,6l-33 0zm51 20c8,-3 14,-9 19,-16 5,-7 8,-16 8,-25 0,-12 -4,-23 -13,-31 -9,-9 -19,-13 -31,-13l-57 0 0 153 23 0 0 -65 26 0 34 65 26 0 -35 -68z"/>
 </g>
</svg>
